<?xml version="1.0" encoding="UTF-8" standalone="no"?>
<svg width="100px" height="68px" viewBox="0 0 100 68" version="1.1" xmlns="http://www.w3.org/2000/svg" xmlns:xlink="http://www.w3.org/1999/xlink">
    <!-- Generator: Sketch 3.8.1 (29687) - http://www.bohemiancoding.com/sketch -->
    <title>text</title>
    <desc>Created with Sketch.</desc>
    <defs>
        <rect id="path-1" x="0" y="0" width="100" height="68"></rect>
    </defs>
    <g id="Elements" stroke="none" stroke-width="1" fill="none" fill-rule="evenodd">
        <g id="text">
            <mask id="mask-2" fill="white">
                <use xlink:href="#path-1"></use>
            </mask>
            <use id="bg" fill="#FFFFFF" xlink:href="#path-1"></use>
            <path d="M40.4904104,19.237 L40.4904104,21.036862 L35.463266,21.036862 L35.463266,35.0603264 L33.3568599,35.0603264 L33.3568599,21.036862 L28.308,21.036862 L28.308,19.237 L40.4904104,19.237 Z M44.4752096,23.6980076 C45.1339172,23.6980076 45.7419458,23.8102678 46.2993138,24.0347916 C46.8566818,24.2593154 47.3380378,24.5832137 47.7433963,25.0064962 C48.1487548,25.4297787 48.4654364,25.9524328 48.6934506,26.5744741 C48.9214648,27.1965154 49.0354701,27.905043 49.0354701,28.700078 C49.0354701,29.0092583 49.0028972,29.2153754 48.9377503,29.3184355 C48.8726034,29.4214956 48.7495499,29.4730248 48.5685863,29.4730248 L41.2504539,29.4730248 C41.2649309,30.1797227 41.3590306,30.7943933 41.5327557,31.3170552 C41.7064808,31.8397171 41.9453492,32.2758756 42.2493681,32.6255438 C42.553387,32.975212 42.9153088,33.236539 43.3351444,33.4095328 C43.75498,33.5825265 44.2254784,33.6690221 44.7466536,33.6690221 C45.2316362,33.6690221 45.6496559,33.6119718 46.0007253,33.4978696 C46.3517947,33.3837673 46.6539995,33.2604651 46.9073485,33.1279593 C47.1606976,32.9954534 47.3724219,32.8721512 47.5425277,32.758049 C47.7126335,32.6439467 47.8592118,32.5868965 47.9822671,32.5868965 C48.1415151,32.5868965 48.2645685,32.6494677 48.3514311,32.7746121 L48.8943192,33.4923485 C48.6554472,33.7868059 48.369529,34.042612 48.0365559,34.2597743 C47.7035828,34.4769367 47.3470898,34.6554488 46.9670662,34.7953161 C46.5870426,34.9351834 46.1943574,35.0400822 45.7889989,35.1100159 C45.3836404,35.1799495 44.9819072,35.2149158 44.5837872,35.2149158 C43.82374,35.2149158 43.1234212,35.0842523 42.48281,34.8229213 C41.8421988,34.5615904 41.2884584,34.1788015 40.8215722,33.6745431 C40.354686,33.1702848 39.9909546,32.5464125 39.730367,31.8029075 C39.4697794,31.0594025 39.3394875,30.2054888 39.3394875,29.2411408 C39.3394875,28.4608286 39.4571121,27.7320574 39.6923648,27.0548054 C39.9276175,26.3775533 40.2660144,25.7904876 40.7075657,25.2935908 C41.1491169,24.7966939 41.6883805,24.4065436 42.3253724,24.1231284 C42.9623644,23.8397131 43.6789696,23.6980076 44.4752096,23.6980076 L44.4752096,23.6980076 Z M44.5186406,25.1445224 C43.5848683,25.1445224 42.850167,25.4187318 42.3145147,25.9671587 C41.7788623,26.5155857 41.4458942,27.2756425 41.3156004,28.247352 L47.298228,28.247352 C47.298228,27.790943 47.2367013,27.3731878 47.113646,26.9940738 C46.9905908,26.6149599 46.8096299,26.287381 46.5707579,26.0113271 C46.3318859,25.7352733 46.0405388,25.5217949 45.6967079,25.3708854 C45.352877,25.219976 44.9601919,25.1445224 44.5186406,25.1445224 L44.5186406,25.1445224 Z M53.4220065,29.3294776 L49.7195092,23.8746812 L51.5761868,23.8746812 C51.7354347,23.8746812 51.8512497,23.9004458 51.9236352,23.9519758 C51.9960206,24.0035059 52.0611666,24.0771191 52.1190749,24.1728178 L54.8118002,28.368815 C54.8769471,28.1626949 54.9710468,27.9565778 55.0941021,27.7504576 L57.4610945,24.2169862 C57.5334799,24.1139261 57.6058643,24.0311112 57.6782497,23.968539 C57.7506352,23.9059668 57.8411156,23.8746812 57.9496938,23.8746812 L59.730367,23.8746812 L56.0278697,29.2190566 L59.8823757,35.0603264 L58.0256982,35.0603264 C57.8664502,35.0603264 57.7415871,35.0179988 57.6511053,34.9333423 C57.5606235,34.8486858 57.4864295,34.7548289 57.4285212,34.6517688 L54.6597915,30.2680559 C54.6091217,30.4815375 54.5331181,30.672932 54.4317785,30.842245 L51.8693464,34.6517688 C51.7969609,34.7548289 51.7191477,34.8486858 51.6359045,34.9333423 C51.5526612,35.0179988 51.4386558,35.0603264 51.2938849,35.0603264 L49.5675005,35.0603264 L53.4220065,29.3294776 Z M65.1266754,35.237 C64.2580499,35.237 63.5903042,34.9903956 63.123418,34.4971794 C62.6565319,34.0039633 62.4230923,33.2935954 62.4230923,32.3660545 L62.4230923,25.5199538 L61.0984452,25.5199538 C60.9826284,25.5199538 60.8849096,25.4849875 60.8052856,25.4150538 C60.7256616,25.3451202 60.6858502,25.2365406 60.6858502,25.0893119 L60.6858502,24.305323 L62.4882389,24.0734389 L62.9334072,20.6172622 C62.9478843,20.5068407 62.9949341,20.4166645 63.0745581,20.3467308 C63.1541821,20.2767972 63.2555202,20.2418309 63.3785755,20.2418309 L64.3557742,20.2418309 L64.3557742,24.0955231 L67.5045255,24.0955231 L67.5045255,25.5199538 L64.3557742,25.5199538 L64.3557742,32.2335493 C64.3557742,32.7046812 64.4679699,33.0543442 64.6923648,33.2825487 C64.9167597,33.5107532 65.2062972,33.6248537 65.5609859,33.6248537 C65.7636651,33.6248537 65.9391972,33.5972487 66.0875874,33.542038 C66.2359776,33.4868272 66.3644598,33.4260963 66.473038,33.3598433 C66.5816162,33.2935904 66.6739062,33.2328595 66.749911,33.1776487 C66.8259157,33.122438 66.8928712,33.094833 66.9507796,33.094833 C67.0521192,33.094833 67.1425997,33.1574043 67.2222237,33.2825487 L67.7868274,34.221127 C67.4538543,34.5376687 67.0521211,34.7861134 66.5816156,34.9664686 C66.1111102,35.1468238 65.626135,35.237 65.1266754,35.237 L65.1266754,35.237 Z" id="Text" fill="#764CB4" mask="url(#mask-2)"></path>
        </g>
    </g>
</svg>