<svg xmlns="http://www.w3.org/2000/svg" xmlns:xlink="http://www.w3.org/1999/xlink" xmlns:svgjs="http://svgjs.com/svgjs" id="SvgjsSvg1020" width="288" height="288"><defs id="SvgjsDefs1021"></defs><g id="SvgjsG1022"><svg xmlns="http://www.w3.org/2000/svg" viewBox="0 0 470 510" width="288" height="288"><path fill="#ffbf66" d="M256.64 327.351c-.547-.23-.973-.636-1.138-1.084C250.817 313.547 238.56 305 225 305s-25.817 8.547-30.502 21.266c-.165.449-.591.854-1.137 1.085-11.035 4.647-18.241 15.381-18.36 27.348C174.835 371.579 188.884 385 205.347 385h39.307c16.468 0 30.511-13.427 30.346-30.301C274.88 342.731 267.674 331.997 256.64 327.351zM244.653 365h-39.307c-5.513 0-10.403-4.522-10.346-10.103.039-3.987 2.442-7.565 6.123-9.114 5.641-2.376 10.066-6.97 12.142-12.603C215.067 328.287 219.783 325 225 325s9.933 3.287 11.734 8.18c2.076 5.633 6.501 10.227 12.143 12.603 3.68 1.55 6.083 5.127 6.122 9.115C255.056 360.465 250.179 365 244.653 365zM180.125 305c0-5.522-4.477-10-10-10h-.25c-5.523 0-10 4.478-10 10s4.477 10 10 10h.25C175.648 315 180.125 310.522 180.125 305zM204.375 285h.25c5.523 0 10-4.478 10-10s-4.477-10-10-10h-.25c-5.523 0-10 4.478-10 10S198.852 285 204.375 285zM245.375 285h.25c5.523 0 10-4.478 10-10s-4.477-10-10-10h-.25c-5.523 0-10 4.478-10 10S239.852 285 245.375 285zM280.125 295h-.25c-5.522 0-10 4.478-10 10s4.478 10 10 10h.25c5.522 0 10-4.478 10-10S285.647 295 280.125 295zM463.197 107.025c-23.929-8.076-29.146-13.294-37.223-37.223C424.603 65.737 420.791 63 416.5 63s-8.103 2.737-9.475 6.803c-8.076 23.929-13.294 29.147-37.223 37.223-4.065 1.372-6.803 5.184-6.803 9.475s2.737 8.103 6.803 9.475c23.929 8.076 29.146 13.294 37.223 37.223 1.372 4.065 5.184 6.803 9.475 6.803s8.103-2.737 9.475-6.803c8.076-23.929 13.294-29.146 37.223-37.223 4.065-1.372 6.803-5.184 6.803-9.475S467.263 108.397 463.197 107.025zM416.5 134.894c-4.737-7.977-10.417-13.656-18.394-18.394 7.977-4.737 13.656-10.417 18.394-18.394 4.737 7.977 10.417 13.656 18.394 18.394C426.917 121.237 421.237 126.917 416.5 134.894zM100.197 107.025c-23.929-8.076-29.147-13.294-37.223-37.223C61.603 65.737 57.791 63 53.5 63s-8.103 2.737-9.475 6.803c-8.076 23.929-13.294 29.147-37.223 37.223C2.737 108.397 0 112.209 0 116.5s2.737 8.103 6.803 9.475c23.929 8.076 29.146 13.294 37.223 37.223C45.397 167.263 49.209 170 53.5 170s8.103-2.737 9.475-6.803c8.076-23.929 13.294-29.146 37.223-37.223 4.065-1.372 6.803-5.184 6.803-9.475S104.263 108.397 100.197 107.025zM53.5 134.894c-4.737-7.977-10.417-13.656-18.394-18.394 7.977-4.737 13.656-10.417 18.394-18.394 4.737 7.977 10.417 13.656 18.394 18.394C63.917 121.237 58.237 126.917 53.5 134.894z" class="colorda5461 svgShape"></path><path fill="#ffbf66" d="M283.211,60l15.581,15.58c5.665,5.666,13.198,8.787,21.211,8.787     C336.579,84.367,350,70.951,350,54.37c0-8.013-3.121-15.546-8.786-21.211l-21.443-21.443C312.215,4.16,302.17,0,291.486,0H190     c-16.542,0-30,13.458-30,30s13.458,30,30,30v40c-22.056,0-40,17.944-40,40v6.768c-23.627,11.256-40,35.365-40,63.232v260     c0,22.056,17.944,40,40,40h150c22.056,0,40-17.944,40-40V210c0-27.867-16.373-51.976-40-63.232V140c0-22.056-17.944-40-40-40V60     H283.211z M318.994,200H285c-5.522,0-10,4.477-10,10s4.478,10,10,10h35v210H210.12c-5.522,0-10,4.478-10,10s4.478,10,10,10H320     v20c0,11.028-8.972,20-20,20H150c-11.028,0-20-8.972-20-20v-20h40.12c5.522,0,10-4.478,10-10s-4.478-10-10-10H130V220h115     c5.523,0,10-4.477,10-10s-4.477-10-10-10H131.006c4.646-22.795,24.847-40,48.994-40h90C294.147,160,314.348,177.205,318.994,200     z M280,140v0.726c-3.268-0.47-6.604-0.726-10-0.726h-90c-3.396,0-6.732,0.256-10,0.726V140c0-11.028,8.972-20,20-20     c14.608,0,55.388,0,70,0C271.028,120,280,128.972,280,140z M210,100V60h30v40H210z M190,40c-5.514,0-10-4.486-10-10     s4.486-10,10-10h101.486c5.342,0,10.364,2.081,14.143,5.858l21.443,21.443c3.906,3.906,3.907,10.229-0.001,14.138     c-3.906,3.906-10.23,3.907-14.137-0.001l-18.511-18.51c-1.876-1.875-4.419-2.929-7.071-2.929C282.689,40,203.834,40,190,40z" class="color283954 svgShape"></path></svg></g></svg>