<svg xmlns="http://www.w3.org/2000/svg" viewBox="0 0 64 64" id="working-on-sofa"><path d="M44,40c-1.683,0-3,1.098-3,2.5s1.317,2.5,3,2.5s3-1.098,3-2.5S45.683,40,44,40z M44,43c-0.62,0-1-0.324-1-0.5  s0.38-0.5,1-0.5s1,0.324,1,0.5S44.62,43,44,43z"></path><path d="M61 36h-1v-5c0-1.654-1.346-3-3-3h-6.5c-.553 0-1 .448-1 1s.447 1 1 1H57c.552 0 1 .449 1 1v5c-1.654 0-3 1.346-3 3v5.03C54.156 43.391 53.12 43 52 43v-5c0-.552-.447-1-1-1 0-1.934-1.089-3.612-2.727-4.443C48.725 31.806 49 30.938 49 30v-3c0-2.757-2.243-5-5-5s-5 2.243-5 5v1h-5c-.771 0-1.468.301-2 .78-.532-.48-1.229-.78-2-.78h-3c0-1.307-.379-2.558-1.065-3.663.137-.755 0-1.517-.423-2.169-.15-.233-.104-.543-.064-.706l.044-.179c.314.191.672.298 1.039.298.346 0 .696-.09 1.015-.278l.86-.509c.459-.272.785-.707.918-1.225.134-.519.057-1.057-.214-1.515l-.509-.861c-.764-1.292-2.351-1.79-3.703-1.244C23.697 14.719 21.659 14 20 14c-1.664 0-3.707.723-4.908 1.961-.611-.226-1.273-.258-1.907-.064-.768.234-1.398.751-1.773 1.456l-.472.882c-.25.471-.303 1.012-.146 1.523.155.512.501.932.971 1.182l.882.471c.299.16.621.235.938.235.334 0 .66-.091.952-.249l.016.063c.04.164.086.474-.065.707-.423.653-.559 1.415-.423 2.17C13.379 25.442 13 26.692 13 28v5.187c0 .728-.297 1.382-.794 1.75C10.825 35.961 10 37.667 10 39.5c0 1.364.457 2.611 1.207 3.574C10.389 43.206 9.64 43.545 9 44.03V39c0-1.654-1.346-3-3-3v-5c0-.551.448-1 1-1h4.313c.553 0 1-.448 1-1s-.447-1-1-1H7c-1.654 0-3 1.346-3 3v5H3c-1.654 0-3 1.346-3 3v18c0 1.654 1.346 3 3 3h1.382l-.553 1.106c-.313.625-.279 1.352.088 1.946S4.92 64 5.618 64H7.5c.626 0 1.225-.299 1.6-.8l2.4-3.2H39v2c0 1.103.897 2 2 2h6c1.103 0 2-.897 2-2v-2h3.507l2.4 3.2c.375.501.974.8 1.6.8h1.882c.699 0 1.335-.355 1.702-.949.367-.594.399-1.321.087-1.945L59.625 60H61c1.654 0 3-1.346 3-3V39C64 37.346 62.654 36 61 36zM54.941 47.461C54.731 48.342 53.943 49 53 49h-4v-1h2c.553 0 1-.448 1-1v-2C53.446 45 54.681 46.051 54.941 47.461zM38 46v-7h12v7H38zM49 37H39c0-1.346.916-2.514 2.181-2.876C41.984 34.675 42.954 35 44 35c1.046 0 2.016-.325 2.819-.876C48.099 34.484 49 35.635 49 37zM43.232 28.404c.699.423 1.752.879 3.089.879.216 0 .448-.029.679-.055V30c0 1.654-1.346 3-3 3s-3-1.346-3-3v-.133C42.016 29.598 42.755 28.96 43.232 28.404zM44 24c1.654 0 3 1.346 3 3v.219c-1.439.239-2.511-.341-3-.69V26c0-.552-.447-1-1-1s-1 .448-1 1v.724c-.158.244-.498.685-1 .983V27C41 25.346 42.346 24 44 24zM34 30h5c0 .94.276 1.81.729 2.562C38.105 33.401 37 35.094 37 37c-.553 0-1 .448-1 1v5c-1.13 0-2.162.391-3 1.026V31C33 30.449 33.448 30 34 30zM30 30c.552 0 1 .449 1 1v13.026c-.638-.483-1.388-.814-2.212-.946C29.541 42.117 30 40.867 30 39.5c0-1.833-.825-3.539-2.206-4.564C27.297 34.568 27 33.914 27 33.187V30H30zM26.878 18.212l.51.861-.861.508-.543-.918c.001-.321-.027-.634-.096-.933C26.272 17.682 26.669 17.858 26.878 18.212zM20 16c1.564 0 3.348.839 3.816 1.794.178.363.199.758.165 1.109-.022-.222-.104-.44-.274-.61-.391-.391-1.023-.391-1.414 0-.111.112-.281.278-.597-.011-.391-.379-1.017-.376-1.403.011C20.098 18.488 20 18.744 20 19s.098.512.293.707c.391.391 1.036.742 1.751.742.542 0 1.123-.202 1.663-.742.082-.082.136-.178.184-.277l-.385 1.551c-.204.825-.088 1.632.328 2.273.163.252.206.528.128.821-.111.42-.577.796-1.108.892-.536.097-1.058-.026-1.433-.339-.182-.152-.286-.34-.349-.536.28-.276.454-.66.454-1.084 0-.842-.683-1.525-1.525-1.525s-1.525.683-1.525 1.525c0 .424.174.808.454 1.084-.064.197-.167.384-.349.536-.375.313-.896.436-1.433.339-.531-.096-.997-.472-1.109-.894-.077-.292-.034-.567.129-.819.416-.641.532-1.448.328-2.275l-.385-1.55c.048.099.102.196.184.278.391.391 1.036.742 1.751.742.542 0 1.123-.202 1.663-.742C19.902 19.512 20 19.256 20 19s-.098-.512-.293-.707c-.391-.391-1.023-.391-1.414 0-.111.112-.281.278-.597-.011-.391-.379-1.017-.376-1.403.011-.17.17-.252.388-.274.61-.034-.351-.014-.745.164-1.108C16.652 16.839 18.436 16 20 16zM19 26.676c.307-.134.602-.295.861-.512.047-.04.094-.081.139-.123.045.042.092.083.139.123.26.217.554.381.861.515V27c0 .551-.448 1-1 1s-1-.449-1-1V26.676zM12.705 19.177l.472-.882c.18-.337.525-.529.884-.529.015 0 .03.005.045.005-.074.342-.103.7-.087 1.07l-.43.806L12.705 19.177zM13.397 36.543C14.4 35.8 15 34.545 15 33.187V28c0-.591.114-1.164.314-1.707.427.314.93.544 1.475.643.071.013.14.007.211.016V27c0 1.654 1.346 3 3 3s3-1.346 3-3v-.045c.071-.009.14-.006.211-.019.546-.099 1.048-.329 1.475-.643C24.886 26.837 25 27.41 25 28v5.187c0 1.358.6 2.613 1.603 3.356C27.478 37.192 28 38.297 28 39.5c0 1.93-1.346 3.5-3 3.5h-1V32c0-.552-.447-1-1-1s-1 .448-1 1v11h-1V32c0-.552-.447-1-1-1s-1 .448-1 1v11h-1V32c0-.552-.447-1-1-1s-1 .448-1 1v11h-1c-1.654 0-3-1.57-3-3.5C12 38.297 12.522 37.192 13.397 36.543zM12 45h16c1.654 0 3 1.346 3 3v1H11c-.943 0-1.731-.658-1.941-1.538C9.319 46.05 10.554 45 12 45zM7.5 62H5.618l1-2H9L7.5 62zM39 58H3c-.552 0-1-.449-1-1V39c0-.551.448-1 1-1h3c.552 0 1 .449 1 1v8c0 .221.031.434.065.646.005.029.001.06.009.089C7.421 49.589 9.046 51 11 51h28V58zM40 49h-7v-1c0-1.654 1.346-3 3-3v2c0 .552.447 1 1 1h6v14h-2V50C41 49.448 40.553 49 40 49zM47 62h-2V48h2V62zM58.389 62h-1.882l-1.5-2h2.382L58.389 62zM62 57c0 .551-.448 1-1 1H49v-7h4c1.955 0 3.58-1.411 3.926-3.266.008-.028.003-.059.009-.087C56.969 47.435 57 47.221 57 47v-8c0-.551.448-1 1-1h3c.552 0 1 .449 1 1V57zM63 0H46c-.553 0-1 .448-1 1v1.75c0 .552.447 1 1 1s1-.448 1-1V2h15v10H47V6.375c0-.552-.447-1-1-1s-1 .448-1 1V13c0 .552.447 1 1 1h17c.553 0 1-.448 1-1V1C64 .448 63.553 0 63 0z"></path><path d="M60 11c.553 0 1-.448 1-1V4c0-.552-.447-1-1-1H49c-.553 0-1 .448-1 1v6c0 .552.447 1 1 1H60zM50 5h9v4h-9V5zM31 21h12c.553 0 1-.448 1-1V5c0-.552-.447-1-1-1H33c-.553 0-1 .448-1 1s.447 1 1 1h9v13H32V7c0-.552-.447-1-1-1s-1 .448-1 1v13C30 20.552 30.447 21 31 21z"></path><path d="M40,18c0.553,0,1-0.448,1-1V8c0-0.552-0.447-1-1-1h-6c-0.553,0-1,0.448-1,1v9c0,0.552,0.447,1,1,1H40z M35,9h4v7h-4V9z"></path></svg>