<svg width="200" height="48" viewBox="0 0 200 48" xmlns="http://www.w3.org/2000/svg" xmlns:xlink="http://www.w3.org/1999/xlink"><title>buttons/googlenews greyscale</title><desc>Created with Sketch.</desc><g id="Page-1" stroke="none" stroke-width="1" fill="none" fill-rule="evenodd"><g id="mobile-rt-com_google-news-short" transform="translate(-20.000000, -464.000000)"><g id="buttons/48/googlenews" transform="translate(20.000000, 464.000000)"><g id="Group-2" transform="translate(28.500000, 13.000000)"><g id="googlelogo_clr_74x24px-copy" fill-rule="nonzero"><path d="M9.86934039 8.74782443V11.3753761H16.1498297C15.9575698 12.8493685 15.466239 13.92816 14.7185617 14.6865184 13.7999868 15.6050934 12.3687188 16.6091172 9.86934039 16.6091172c-3.86655977.0-6.88931229-3.1188825-6.88931229-6.98544221.0-3.86655976 3.02275252-6.98544222 6.88931229-6.98544222 2.08281531.0 3.61021321.82244503 4.73172921 1.87987436l1.847831-1.84783105C14.8894594 1.15355927 12.795963.0 9.86934039.0 4.57151265.0.117492147 4.31516614.117492147 9.61299388c0 5.29782772 4.454020503 9.61299392 9.751848243 9.61299392 2.86253591.0 5.02011901-.939937199999999 6.70773351-2.6916383 1.7303389-1.7303389 2.2750752-4.1763118 2.2750752-6.141635C18.8521491 9.78389155 18.8094247 9.21779302 18.7132948 8.74782443H9.86934039z" id="Path" fill="#4285f4"/><path d="M26.7027608 6.61160357c-3.4286345.0-6.2270838 2.60618945-6.2270838 6.20572163.0 3.5674888 2.7984493 6.2057216 6.2270838 6.2057216s6.2270838-2.6275517 6.2270838-6.2057216c0-3.59953218-2.7984493-6.20572163-6.2270838-6.20572163zm0 9.96547033c-1.8798744.0-3.5034022-1.5487601-3.5034022-3.7597487.0-2.2323508 1.6235278-3.75974874 3.5034022-3.75974874 1.8798743.0 3.5034022 1.52739794 3.5034022 3.75974874.0 2.2109886-1.6235279 3.7597487-3.5034022 3.7597487z" id="Shape" fill="#ea4335"/><path d="M57.2293569 8.00014713H57.133227C56.524404 7.27383204 55.3494826 6.61160357 53.8648091 6.61160357c-3.0975203.0-5.7998397 2.70231939-5.7998397 6.20572163.0 3.48204 2.7023194 6.2057216 5.7998397 6.2057216C55.3494826 19.0230468 56.524404 18.3608183 57.133227 17.613141H57.2293569v.8651695c0 2.3712051-1.2710514 3.6422565-3.3111423 3.6422565-1.6662523.0-2.7023194-1.1962836-3.1295636-2.2109886l-2.3712051.9826616C49.1010365 22.5371301 50.9061432 24.5558588 53.9182146 24.5558588c3.1936502.0 5.8959696-1.8798743 5.8959696-6.4620681V6.9320367H57.2293569V8.00014713zM54.0997934 16.5770739c-1.87987440000001.0-3.3111424-1.6021657-3.3111424-3.7597487.0-2.1896264 1.431268-3.75974874 3.3111424-3.75974874 1.8585121.0 3.3111423 1.60216564 3.3111423 3.78111094C57.4216168 15.0069516 55.9583055 16.5770739 54.0997934 16.5770739z" id="Shape" fill="#4285f4"/><path d="M40.5881964 6.61160357c-3.4286345.0-6.2270838 2.60618945-6.2270838 6.20572163.0 3.5674888 2.7984493 6.2057216 6.2270838 6.2057216s6.2270838-2.6275517 6.2270838-6.2057216c0-3.59953218-2.79844929999999-6.20572163-6.2270838-6.20572163zm0 9.96547033c-1.8798744.0-3.5034022-1.5487601-3.5034022-3.7597487.0-2.2323508 1.62352780000001-3.75974874 3.5034022-3.75974874s3.5034022 1.52739794 3.5034022 3.75974874c0 2.2109886-1.6235278 3.7597487-3.5034022 3.7597487z" id="Shape" fill="#fbbc05"/><polygon id="Path" fill="#34a853" points="61.950405 0.256346504 64.6313622 0.256346504 64.6313622 19.0230468 61.950405 19.0230468"/><path d="M72.9092181 16.5770739C71.5206745 16.5770739 70.5380129 15.9468887 69.8971466 14.6971995l8.2992181-3.4286344L77.918656 10.5636122C77.405963 9.17506861 75.8251595 6.61160357 72.6101471 6.61160357 69.4164969 6.61160357 66.756902 9.12166308 66.756902 12.8173252c0 3.48204 2.6275516 6.2057216 6.15231610000001 6.2057216 2.8411737.0 4.4860638-1.74102 5.1696544-2.7450438L75.9640139 14.8680972C75.259061 15.8934832 74.2977616 16.5770739 72.9092181 16.5770739zM72.7169582 8.94008431C73.8171119 8.94008431 74.7570491 9.50618284 75.0668011 10.3072657l-5.6075797 2.3177996c0-2.6061895 1.847831-3.68498099 3.25773679999999-3.68498099z" id="Shape" fill="#ea4335"/></g><path d="M85.938616 19.1673004V2.15753612H88.5993612L96.8666768 15.3899924H96.9617034L96.8666768 12.1115741V2.15753612H99.052289V19.1673004H96.7716502L88.1242281 5.29341445H88.0292015L88.1242281 8.5718327V19.1673004H85.938616zM107.367118 19.5474068c-1.75800100000001.0-3.18734600000001-.5859916-4.288076-1.7579924-1.100731-1.1720007-1.651088-2.6528174-1.651088-4.4424942.0-1.6946498.534520000000001-3.15171 1.60357500000001-4.37122438C104.100583 7.75618148 105.466577 7.14643346 107.129551 7.14643346c1.726326.0 3.10815699999999.56223519 4.14553599999999 1.68672243 1.03738 1.12448725 1.556061 2.62906031 1.556061 4.51376431L112.807392 13.7507833H103.613567C103.676918 14.9227841 104.068899 15.8492843 104.789521 16.5303118 105.510143 17.2113393 106.353496 17.5518479 107.319605 17.5518479c1.567947.0 2.62906600000001-.6651797 3.183391-1.9955589L112.451042 16.3640152C112.070933 17.2667726 111.445348 18.0230185 110.574266 18.6327757 109.703184 19.2425328 108.634146 19.5474068 107.367118 19.5474068zM110.502996 11.9452776C110.455483 11.2800879 110.150609 10.6465835 109.588365 10.0447452 109.026121 9.442907 108.190687 9.1419924 107.082038 9.1419924c-.807729999999992.0-1.508545.25340177-2.102464.760212920000001-.593919.50681118-1.001738 1.18782838-1.223468 2.04307228H110.502996zm17.057278 7.2220228H125.327148L122.428837 10.2347985l-2.874556 8.9325019h-2.209368L113.591361 7.52653992H115.872L118.461475 16.3165019H118.485232l2.874555-8.78996198h2.256882l2.874555 8.78996198H126.514981L129.0807 7.52653992h2.233125L127.560274 19.1673004zM137.062935 19.5474068c-1.29870300000002.0-2.371701-.3167522-3.21902600000001-.9502661C132.996584 17.9636267 132.374958 17.1717462 131.979011 16.2214753L133.927057 15.413749C134.544733 16.8708311 135.597934 17.5993612 137.086692 17.5993612 137.76772 17.5993612 138.325995 17.4489039 138.761536 17.1479848 139.197077 16.8470657 139.414844 16.4511254 139.414844 15.9601521 139.414844 15.1999354 138.884284 14.685213 137.823148 14.4159696L135.47124 13.8458099C134.726861 13.6557557 134.022087 13.2954501 133.356897 12.7648821 132.691708 12.2343142 132.359118 11.5176623 132.359118 10.6149049c0-1.02946011.455331000000001-1.86489409 1.366007-2.50632695C134.635802 7.46714508 135.716719 7.14643346 136.967909 7.14643346c1.02946.0 1.94804100000002.23360476 2.75577200000001.70082129C140.531411 8.31447128 141.109484 8.98361035 141.457916 9.85469202L139.557384 10.6386616C139.129762 9.60920144 138.242856 9.09447909 136.896639 9.09447909 136.247287 9.09447909 135.700889 9.22909878 135.25743 9.49834221 134.81397 9.76758563 134.592243 10.1318507 134.592243 10.5911483c0 .6651896.514723000000004 1.1165615 1.544183 1.3541293l2.304395.546403C139.533633 12.7450862 140.341351 13.1806205 140.864 13.7982966 141.386649 14.4159727 141.64797 15.1128276 141.64797 15.8888821c0 1.045298-.427616 1.9163666-1.28286 2.613232C139.509866 19.1989794 138.409152 19.5474068 137.062935 19.5474068z" id="News" fill="#5f6368" fill-rule="nonzero"/></g></g></g></g></svg>